<svg xmlns="http://www.w3.org/2000/svg" viewBox="0 0 1507.13 1694.58"><defs><style>.cls-1{fill:#facf8e;}</style></defs><title>logo</title><g id="Layer_2" data-name="Layer 2"><g id="Capa_3" data-name="Capa 3"><path class="cls-1" d="M31.39,1694.58H1475.73a31.39,31.39,0,0,0,31.4-31.4v-93.5a31.38,31.38,0,0,0-31.4-31.39h-9v-39.2a31.39,31.39,0,0,0-31.4-31.4H71.84a31.41,31.41,0,0,0-31.42,31.4v39.2h-9A31.39,31.39,0,0,0,0,1569.68v93.5a31.41,31.41,0,0,0,31.39,31.4Zm29-116.38a20,20,0,0,0,19.95-20V1507.6H1426.8v50.64a20,20,0,0,0,20,20h20.46v76.47H39.91V1578.2Z"/><path class="cls-1" d="M73.75,520.34a38.12,38.12,0,0,0,14.49,7.07,65,65,0,0,0,16.29,1.87H1407.66a56.36,56.36,0,0,0,12.24-1.21,37,37,0,0,0,8.8-3.07,28.79,28.79,0,0,0,11.57-10.32,27.36,27.36,0,0,0,4.18-14.59,30.67,30.67,0,0,0-1.59-9.61,37.77,37.77,0,0,0-5.51-10.55,42,42,0,0,0-7.53-7.83c-40.28-32.14-100.73-77.14-169-126.77C1059.52,199,790.73,12.8,781.72,6.56a34.66,34.66,0,0,0-5.63-3.29A35.11,35.11,0,0,0,761.39,0a34.48,34.48,0,0,0-10.32,1.6,37.33,37.33,0,0,0-10.28,5.13C706.61,30.83,580.73,118.54,444,213.64S159.34,411.29,81.16,465.18A45.48,45.48,0,0,0,68.71,478a39.28,39.28,0,0,0-4.2,8.6,33.34,33.34,0,0,0-1.82,10.7,29.4,29.4,0,0,0,3.63,14.24A30.23,30.23,0,0,0,73.75,520.34Zm393-273.93C600.65,153.3,723.91,67.42,761.4,41l2.87,2c27.06,18.78,150.14,104.24,285,199.86,67.45,47.82,137.87,98.16,200.69,144,53.45,39,101.4,74.64,137.23,102.54l-1270.86,0C197.22,433.59,336.89,336.67,466.73,246.41Z"/><path class="cls-1" d="M323.24,668.48a25.2,25.2,0,0,0,25.19-25.19V585.48a25.21,25.21,0,0,0-25.19-25.18H135.66a25.2,25.2,0,0,0-25.2,25.18v57.81a25.2,25.2,0,0,0,25.2,25.19h.3v666.46h-.3a25.2,25.2,0,0,0-25.2,25.19v57.8a25.2,25.2,0,0,0,25.2,25.19H323.24a25.21,25.21,0,0,0,25.19-25.19v-57.8a25.2,25.2,0,0,0-25.19-25.19h-.3V668.48ZM283,1327.36H175.87V669.63H283Zm-132.66,47.49H308.52v28.36H150.37ZM308.52,628.56H150.37V600.21H308.52Z"/><path class="cls-1" d="M672.66,668.48a25.2,25.2,0,0,0,25.18-25.19V585.48a25.2,25.2,0,0,0-25.18-25.18H485.06a25.18,25.18,0,0,0-25.18,25.18v57.81a25.18,25.18,0,0,0,25.18,25.19h.32v666.46h-.32a25.16,25.16,0,0,0-25.18,25.19v57.8a25.18,25.18,0,0,0,25.18,25.19h187.6a25.21,25.21,0,0,0,25.18-25.19v-57.8a25.2,25.2,0,0,0-25.18-25.19h-.32V668.48Zm-40.23,658.88H525.29V669.63H632.43Zm25.49,47.49v28.36H499.79v-28.36Zm0-746.29H499.79V600.21H657.92Z"/><path class="cls-1" d="M1022.07,668.48a25.21,25.21,0,0,0,25.2-25.19V585.48a25.2,25.2,0,0,0-25.2-25.18H834.48a25.2,25.2,0,0,0-25.2,25.18v57.81a25.2,25.2,0,0,0,25.2,25.19h.31v666.46h-.31a25.18,25.18,0,0,0-25.2,25.19v57.8a25.2,25.2,0,0,0,25.2,25.19h187.59a25.2,25.2,0,0,0,25.2-25.19v-57.8a25.18,25.18,0,0,0-25.2-25.19h-.31V668.48Zm-40.22,658.88H874.7V669.63H981.85Zm-132.66,47.49h158.17v28.36H849.19Zm158.17-746.29H849.19V600.21h158.17Z"/><path class="cls-1" d="M1371.46,668.48a25.2,25.2,0,0,0,25.2-25.19V585.48a25.2,25.2,0,0,0-25.2-25.18H1183.88a25.18,25.18,0,0,0-25.18,25.18v57.81a25.2,25.2,0,0,0,25.18,25.19h.32v666.46h-.32a25.16,25.16,0,0,0-25.18,25.19v57.8a25.2,25.2,0,0,0,25.18,25.19h187.58a25.2,25.2,0,0,0,25.2-25.19v-57.8a25.18,25.18,0,0,0-25.2-25.19h-.28V668.48Zm-40.2,658.88H1224.12V669.63h107.14Zm25.49,47.49v28.36H1198.62v-28.36Zm0-746.29H1198.62V600.21h158.13Z"/></g></g></svg>