<svg xmlns="http://www.w3.org/2000/svg" xmlns:xlink="http://www.w3.org/1999/xlink" viewBox="0 0 52.69 62.46"><defs><style>.cls-1{fill:none;}.cls-2{clip-path:url(#clip-path);}</style><clipPath id="clip-path" transform="translate(-0.22 -0.09)"><rect id="SVGID" class="cls-1" width="52.93" height="62.66"/></clipPath></defs><title>swipe</title><g id="Layer_2" data-name="Layer 2"><g id="Layer_1-2" data-name="Layer 1"><g class="cls-2"><path d="M3.36,47.39c.48.2,1,.36,1.47.51l.46.15a23.8,23.8,0,0,1,7.76,4.09c3.76,3,7.57,5.85,10.79,8.23a8.71,8.71,0,0,0,3,1.39,26.05,26.05,0,0,0,6.22.79,20,20,0,0,0,12.41-4.23c5-3.74,7.45-8.51,7.44-14.19a33.35,33.35,0,0,0-.68-6.68,54.72,54.72,0,0,0-4-12.47,14.35,14.35,0,0,0-3.47-4.84,5.32,5.32,0,0,0-2-1.14,5.33,5.33,0,0,0-4.48.54,5.64,5.64,0,0,0-1.69,1.61l-.36.52-.11.17a6.41,6.41,0,0,0-5.2-1.58c-1.77.27-2.54.85-4.28,3.2-3.64-1.89-5.49-.72-7.2,1.84l-.82-1.57c-.67-1.28-1.3-2.49-2-3.7-1.57-2.76-3.12-5.45-4.74-8.06A10,10,0,0,0,8.09,8.46a3.29,3.29,0,0,0-4.49.91,4.33,4.33,0,0,0-1,1.93,4.43,4.43,0,0,0,.06,2.17c.26,1,.62,2,1,3,.18.49.36,1,.53,1.47a139.63,139.63,0,0,0,7.38,16.8l.44.9c.22.45.42.91.66,1.44l.25.55-.24,0-.82-.15a13.24,13.24,0,0,0-8.74,1.24c-2,1-3,2.43-2.88,4.29A4.83,4.83,0,0,0,3.36,47.39Zm11.2-5c.75.81,1.43,1,2.08.66a1.62,1.62,0,0,0,.77-1.92,6.69,6.69,0,0,0-.53-1.5c-.79-1.7-1.6-3.41-2.41-5.11-1.64-3.46-3.33-7-4.92-10.58-1.12-2.51-2.1-5.13-3.06-7.67-.29-.78-.59-1.55-.88-2.33a4.24,4.24,0,0,1-.38-1.89,2.5,2.5,0,0,1,.83-1.57c.15-.12.89.08,1.32.4a8.71,8.71,0,0,1,2,1.93,48.19,48.19,0,0,1,2.91,4.77c1.48,2.84,2.95,5.75,4.37,8.56l2.07,4.09.05.1a4,4,0,0,0,.63,1,1.28,1.28,0,0,0,.64.45,1.38,1.38,0,0,0,.78,0,1.37,1.37,0,0,0,.66-.42,1.34,1.34,0,0,0,.33-.71,3,3,0,0,0,0-.84,5.42,5.42,0,0,1,0-.57c0-.28.05-.56.07-.84a11,11,0,0,1,.32-2.35,1.64,1.64,0,0,1,.36-.79,1.55,1.55,0,0,1,.73-.45,1.48,1.48,0,0,1,.86,0,1.51,1.51,0,0,1,.72.47,7.86,7.86,0,0,1,1.27,1.77c.09.16.18.32.28.48a4,4,0,0,1,.34.83,4.72,4.72,0,0,0,.16.45,1.28,1.28,0,0,0,1.66.89,1.23,1.23,0,0,0,.91-1.5c0-.32-.09-.63-.14-.94s-.1-.61-.14-.91a6.34,6.34,0,0,1-.05-1.07v-.16c0-1,.07-1.92,1.1-2.35a3.06,3.06,0,0,1,3.47.55A7.45,7.45,0,0,1,34.9,25l.31.51a4.53,4.53,0,0,1,.27.54,2.3,2.3,0,0,0,.49.84,1.91,1.91,0,0,0,1.45.59,1.85,1.85,0,0,0,1.08-1.14,4.29,4.29,0,0,0,.2-1.18c0-.23,0-.46.08-.69A6.74,6.74,0,0,1,39.15,23a2.24,2.24,0,0,1,1.49-1.48,2,2,0,0,1,.94.05,2.1,2.1,0,0,1,.81.49,12.55,12.55,0,0,1,3,3.49A44.5,44.5,0,0,1,50.05,42.2q0,.42,0,.84v.4h0c.35,8.79-9.07,15-15.71,15.4a16.56,16.56,0,0,1-12.78-4.26c-2.49-2.25-5.19-4.37-7.49-6.15a23.21,23.21,0,0,0-7.79-4l-.07,0a11.21,11.21,0,0,1-2.1-.76,1.67,1.67,0,0,1-1-1.17,1.51,1.51,0,0,1,.7-1.27A6.54,6.54,0,0,1,6.17,40a11.11,11.11,0,0,1,2.74-.38,6.94,6.94,0,0,1,3.91,1.13,7.69,7.69,0,0,1,1.47,1.38l.27.31Z" transform="translate(-0.22 -0.09)"/><path d="M20.83,6.83A22.44,22.44,0,0,1,34.46,12l.45.37a15.57,15.57,0,0,0,1.28,1,2.08,2.08,0,0,0,1.14.43,1.25,1.25,0,0,0,.5-.11,1.17,1.17,0,0,0,.4-.3,1.43,1.43,0,0,0-.11-2A7.9,7.9,0,0,0,37,10.18,24.9,24.9,0,0,0,25.2,4.44c-1-.18-2.05-.27-3.13-.36L20.87,4l.41-.44c.47-.5.92-1,1.34-1.46A1.15,1.15,0,0,0,22.74.45c-.63-.7-1.31-.22-1.73.06-1.69,1.17-3.35,2.32-5,3.42A2.71,2.71,0,0,0,14.57,6a2.37,2.37,0,0,0,1.25,1.88,34.46,34.46,0,0,0,4.27,2.31l.67.32a3.23,3.23,0,0,0,1.6.17,1,1,0,0,0,.49-.12,1.12,1.12,0,0,0,.38-.34,1,1,0,0,0,.09-.48,1.07,1.07,0,0,0-.14-.47A4.42,4.42,0,0,0,22.06,8a9.44,9.44,0,0,0-1.24-.81l-.41-.24h0A1.32,1.32,0,0,1,20.83,6.83Z" transform="translate(-0.22 -0.09)"/></g></g></g></svg>